# xmcd
#
# Track frame offsets:
#	150
#	17374
#	33220
#	48880
#	65726
#	81369
#	95225
#	110333
#	123903
#	140905
#	158082
#	175061
#	189083
#	205641
#	218088
#	234015
#	250402
#
# Disc length: 3583 seconds
#
# Revision: 1
# Processed by: cddbd v1.5.2PL0 Copyright (c) Steve Scherf et al.
# Submitted via: audiograbber 1.83.01
#
DISCID=dc0dfd11
DTITLE=Various Artist - My Country Vol 3 - CD1
DYEAR=2011
DGENRE=Country
TTITLE0=Tim McGraw - Somebody Like You
TTITLE1=Lady Antebellum - Roll With It
TTITLE2=Kenny Chesney - All About Tonight
TTITLE3=Chris Young - Wrong Baby Wrong Baby Wrong
TTITLE4=Brad Paisley - Farmer's Daughter
TTITLE5=Gretchen Wilson - Honky Tonk Stomp
TTITLE6=Zac Brown Band - I Won't Give Up
TTITLE7=Dierks Bentley - Undo It
TTITLE8=Miranda Lambert - Unlikely Angel
TTITLE9=Lee Brice - Best Days Of Your Life
TTITLE10=Luke Bryan - American Style
TTITLE11=Billy Currington - Marry For Money
TTITLE12=Eric Church - Raymond
TTITLE13=Sugarland - Wildflower
TTITLE14=Alan Jackson - History In The Making
TTITLE15=Clay Walker - What You Think About Us
TTITLE16=Steve Holy - This Ain't Nothing
EXTD=
EXTT0=
EXTT1=
EXTT2=
EXTT3=
EXTT4=
EXTT5=
EXTT6=
EXTT7=
EXTT8=
EXTT9=
EXTT10=
EXTT11=
EXTT12=
EXTT13=
EXTT14=
EXTT15=
EXTT16=
PLAYORDER=
